<?xml version="1.0" encoding="utf-8"?>
<!-- Generator: Adobe Illustrator 21.0.0, SVG Export Plug-In . SVG Version: 6.00 Build 0)  -->
<svg version="1.1" id="Capa_1" xmlns="http://www.w3.org/2000/svg" xmlns:xlink="http://www.w3.org/1999/xlink" x="0px" y="0px"
	 viewBox="0 0 332.6 124" style="enable-background:new 0 0 332.6 124;" xml:space="preserve">
<style type="text/css">
	.st0{fill:#FFFFFF;}
</style>
<g>
	<g>
		<path class="st0" d="M92.5,37.4H103c2.5,0,6,0,7.7,1.1c1.9,1.1,3.4,3.2,3.4,6c0,3.1-1.6,5.4-4.3,6.5v0.1c3.6,0.7,5.5,3.4,5.5,7
			c0,4.2-3,8.3-8.8,8.3h-14C92.5,66.5,92.5,37.4,92.5,37.4z M96.3,49.9h7.7c4.4,0,6.2-1.5,6.2-4.6c0-4-2.9-4.6-6.2-4.6h-7.7
			C96.3,40.7,96.3,49.9,96.3,49.9z M96.3,63.3h9.7c3.3,0,5.5-2,5.5-5.2c0-3.8-3-4.8-6.3-4.8h-8.8L96.3,63.3L96.3,63.3z"/>
		<path class="st0" d="M137.2,66.5H134v-3.3h-0.1c-1.5,2.6-3.8,3.8-6.8,3.8c-5.5,0-7.3-3.2-7.3-7.7V45.4h3.4v14.3
			c0,2.5,1.6,4.2,4.2,4.2c4.2,0,6.2-2.8,6.2-6.6V45.4h3.4v21.1H137.2z"/>
		<path class="st0" d="M160.4,59.9c-0.9,4.6-4.2,7.2-9,7.2c-6.7,0-9.9-4.6-10.1-11.1c0-6.3,4.2-10.9,9.9-10.9
			c7.4,0,9.7,6.9,9.5,12.1H145c-0.1,3.7,2,6.9,6.5,6.9c2.9,0,4.8-1.4,5.5-4.1L160.4,59.9L160.4,59.9z M157,54c-0.2-3.3-2.6-6-6-6
			c-3.6,0-5.8,2.7-6,6H157z"/>
		<path class="st0" d="M164.3,45.4h3.3v3.3h0.1c1.5-2.6,3.8-3.8,6.8-3.8c5.5,0,7.3,3.2,7.3,7.7v13.9h-3.4V52.3
			c0-2.5-1.6-4.2-4.2-4.2c-4.2,0-6.2,2.8-6.2,6.6v11.9h-3.4V45.4H164.3z"/>
		<path class="st0" d="M196,44.9c6.7,0,10.2,4.8,10.2,11c0,6.1-3.5,11-10.2,11c-6.7,0-10.2-4.8-10.2-11
			C185.8,49.8,189.3,44.9,196,44.9z M196,63.9c3.6,0,6.5-2.9,6.5-7.9c0-5.1-2.9-8-6.5-8s-6.5,2.9-6.5,8
			C189.5,61.1,192.4,63.9,196,63.9z"/>
		<path class="st0" d="M212.5,59.9c0.2,3.1,2.8,4.1,5.6,4.1c2.1,0,5.1-0.5,5.1-3.1c0-2.7-3.4-3.1-6.8-3.9c-3.4-0.7-6.8-1.9-6.8-6
			c0-4.2,4.2-6,7.8-6c4.6,0,8.3,1.5,8.6,6.6h-3.4c-0.2-2.7-2.6-3.5-4.9-3.5c-2,0-4.5,0.6-4.5,2.7c0,2.4,3.7,2.9,6.8,3.7
			c3.4,0.7,6.8,1.9,6.8,6c0,5-4.6,6.6-9,6.6c-4.7,0-8.7-1.9-8.9-7.1L212.5,59.9L212.5,59.9z"/>
		<path class="st0" d="M250.5,37.4h4.2l11.3,29.1h-4.2l-3.2-8.7h-12.3l-3.3,8.7h-4L250.5,37.4z M247.6,54.5h9.9l-4.8-13.5h-0.1
			L247.6,54.5z"/>
		<path class="st0" d="M272.1,41.7h-3.4v-4.2h3.4V41.7z M268.6,45.4h3.4v21h-3.4V45.4z"/>
		<path class="st0" d="M277.3,45.4h3.3v4.4h0.1c1.6-3.3,4-5.1,7.7-4.9v3.7c-5.5,0-7.6,3.2-7.6,8.5v9.4h-3.4L277.3,45.4L277.3,45.4z"
			/>
		<path class="st0" d="M308.3,59.9c-0.9,4.6-4.2,7.2-9,7.2c-6.7,0-9.9-4.6-10.1-11.1c0-6.3,4.2-10.9,9.9-10.9
			c7.4,0,9.7,6.9,9.5,12.1h-15.7c-0.2,3.7,2,6.9,6.5,6.9c2.9,0,4.8-1.4,5.5-4.1L308.3,59.9L308.3,59.9z M305,54c-0.2-3.3-2.6-6-6-6
			c-3.6,0-5.8,2.7-6,6H305z"/>
		<path class="st0" d="M314.3,59.9c0.2,3.1,2.8,4.1,5.6,4.1c2.1,0,5.1-0.5,5.1-3.1c0-2.7-3.4-3.1-6.8-3.9c-3.4-0.7-6.8-1.9-6.8-6
			c0-4.2,4.2-6,7.8-6c4.6,0,8.3,1.5,8.6,6.6h-3.4c-0.2-2.7-2.6-3.5-4.9-3.5c-2,0-4.5,0.6-4.5,2.7c0,2.4,3.7,2.9,6.8,3.7
			c3.4,0.7,6.8,1.9,6.8,6c0,5-4.6,6.6-9,6.6c-4.7,0-8.7-1.9-8.9-7.1L314.3,59.9L314.3,59.9z"/>
	</g>
	<g>
		<path class="st0" d="M105.4,90.5c-1.3,1.8-3.4,2.5-5.4,2.5c-5.1,0-8-4.1-8-8.5c0-4.9,2.7-9.1,8-9.1c3.7,0,6.6,1.6,7.3,5.5H105
			c-0.4-2.5-2.5-3.7-5-3.7c-4.1,0-5.8,3.5-5.8,7.2c0,3.5,2,6.7,5.8,6.7c3.4,0,5.5-2.4,5.4-5.5h-5.4v-2h7.3v8.9H106L105.4,90.5z"/>
		<path class="st0" d="M115.5,80.2c3.8,0,6,2.8,6,6.4s-2,6.4-6,6.4c-3.8,0-6-2.8-6-6.4C109.7,82.9,111.7,80.2,115.5,80.2z
			 M115.5,91.2c2.1,0,3.8-1.6,3.8-4.6c0-2.9-1.7-4.6-3.8-4.6c-2.1,0-3.8,1.6-3.8,4.6C111.8,89.5,113.4,91.2,115.5,91.2z"/>
		<path class="st0" d="M123.9,75.8h2v6.3h0.1c0.7-1.3,2.2-2,3.9-2c3.8,0,5.6,2.9,5.6,6.4c0,3.4-1.9,6.4-5.5,6.4
			c-1.2,0-3-0.5-3.9-1.9H126v1.6h-2L123.9,75.8L123.9,75.8z M129.6,82c-2.7,0-3.8,2.3-3.8,4.6c0,2.4,1.1,4.6,3.8,4.6
			c2.8,0,3.7-2.4,3.7-4.7C133.3,84.2,132.1,82,129.6,82z"/>
		<path class="st0" d="M139.9,78.3h-2v-2.4h2V78.3z M137.9,80.4h2v12.1h-2V80.4z"/>
		<path class="st0" d="M153.4,88.7c-0.6,2.7-2.4,4.2-5.2,4.2c-3.9,0-5.7-2.7-5.9-6.4c0-3.7,2.4-6.4,5.7-6.4c4.3,0,5.6,4,5.5,7h-9.1
			c-0.1,2.1,1.1,4,3.8,4c1.6,0,2.8-0.8,3.2-2.4C151.4,88.7,153.4,88.7,153.4,88.7z M151.4,85.4c-0.1-1.9-1.5-3.4-3.5-3.4
			c-2.1,0-3.3,1.5-3.5,3.4H151.4z"/>
		<path class="st0" d="M155.6,80.4h1.9v2.5h0.1c1-2,2.3-2.9,4.5-2.9v2.1c-3.3,0-4.4,1.9-4.4,4.9v5.4h-2V80.4L155.6,80.4z"/>
		<path class="st0" d="M163.9,80.4h1.9v2h0.1c0.8-1.5,2.2-2.2,4-2.2c3.2,0,4.2,1.9,4.2,4.5v8h-2v-8.2c0-1.5-1-2.4-2.4-2.4
			c-2.4,0-3.6,1.6-3.6,3.8v6.8h-2V80.4z"/>
		<path class="st0" d="M182.2,80.2c3.8,0,6,2.8,6,6.4s-2,6.4-6,6.4c-3.9,0-6-2.8-6-6.4C176.4,82.9,178.4,80.2,182.2,80.2z
			 M182.2,91.2c2.1,0,3.8-1.6,3.8-4.6c0-2.9-1.7-4.6-3.8-4.6c-2.1,0-3.8,1.6-3.8,4.6C178.5,89.5,180.2,91.2,182.2,91.2z"/>
		<path class="st0" d="M207.9,92.6h-2V91h-0.1c-0.7,1.3-2.2,2-3.9,2c-3.8,0-5.6-2.9-5.6-6.4c0-3.4,1.9-6.4,5.5-6.4
			c1.2,0,3,0.5,3.9,1.9h0.1v-6.3h2L207.9,92.6C207.8,92.6,207.9,92.6,207.9,92.6z M202.3,91.2c2.7,0,3.8-2.3,3.8-4.6
			c0-2.4-1.1-4.6-3.8-4.6c-2.8,0-3.7,2.4-3.7,4.7C198.6,88.9,199.7,91.2,202.3,91.2z"/>
		<path class="st0" d="M221.5,88.7c-0.6,2.7-2.4,4.2-5.2,4.2c-3.9,0-5.7-2.7-5.9-6.4c0-3.7,2.4-6.4,5.7-6.4c4.3,0,5.6,4,5.5,7h-9.1
			c-0.1,2.1,1.1,4,3.8,4c1.6,0,2.8-0.8,3.2-2.4C219.5,88.7,221.5,88.7,221.5,88.7z M219.5,85.4c-0.1-1.9-1.5-3.4-3.5-3.4
			c-2.1,0-3.3,1.5-3.5,3.4H219.5z"/>
		<path class="st0" d="M230.4,75.8h2v16.8h-2V75.8z"/>
		<path class="st0" d="M246.3,92.6c-0.3,0.2-0.8,0.3-1.5,0.3c-1.1,0-1.7-0.6-1.7-1.9c-1.1,1.3-2.6,1.9-4.3,1.9c-2.2,0-4-1-4-3.4
			c0-2.8,2-3.3,4.2-3.8c2.2-0.4,4.1-0.2,4.1-1.8c0-1.7-1.5-2-2.7-2c-1.7,0-2.9,0.5-3,2.3h-2c0.1-3,2.4-4.1,5.1-4.1
			c2.2,0,4.6,0.5,4.6,3.3v6.3c0,1,0,1.4,0.7,1.4c0.2,0,0.3,0,0.7-0.1V92.6z M243,86.4c-0.8,0.6-2.3,0.6-3.6,0.8
			c-1.3,0.2-2.4,0.7-2.4,2.2c0,1.3,1.1,1.8,2.4,1.8c2.6,0,3.8-1.6,3.8-2.8L243,86.4C243.1,86.4,243,86.4,243,86.4z"/>
		<path class="st0" d="M266.8,80.9c-0.5-2.4-2.4-3.6-4.7-3.6c-4,0-5.7,3.3-5.7,6.8c0,3.8,1.7,7,5.7,7c2.9,0,4.6-2,4.9-4.9h2.2
			c-0.4,4.2-3,6.8-7.3,6.8c-5.2,0-7.7-3.8-7.7-8.7s2.8-8.9,8-8.9c3.5,0,6.4,1.9,6.9,5.5L266.8,80.9L266.8,80.9z"/>
		<path class="st0" d="M273.8,78.3h-2v-2.4h2V78.3z M271.8,80.4h2v12.1h-2V80.4z"/>
		<path class="st0" d="M286.9,92.6h-1.9v-2H285c-0.8,1.5-2.2,2.2-4,2.2c-3.2,0-4.2-1.9-4.2-4.5v-8h2v8.2c0,1.5,1,2.4,2.4,2.4
			c2.4,0,3.6-1.6,3.6-3.8v-6.8h2V92.6z"/>
		<path class="st0" d="M300.9,92.6h-2V91h-0.1c-0.7,1.3-2.2,2-3.9,2c-3.8,0-5.6-2.9-5.6-6.4c0-3.4,1.9-6.4,5.5-6.4
			c1.2,0,3,0.5,3.9,1.9h0.1v-6.3h2L300.9,92.6C300.8,92.6,300.9,92.6,300.9,92.6z M295.2,91.2c2.7,0,3.8-2.3,3.8-4.6
			c0-2.4-1.1-4.6-3.8-4.6c-2.8,0-3.7,2.4-3.7,4.7C291.4,88.9,292.7,91.2,295.2,91.2z"/>
		<path class="st0" d="M314.7,92.6c-0.3,0.2-0.8,0.3-1.5,0.3c-1.1,0-1.7-0.6-1.7-1.9c-1.1,1.3-2.6,1.9-4.3,1.9c-2.2,0-4-1-4-3.4
			c0-2.8,2-3.3,4.2-3.8c2.2-0.4,4.1-0.2,4.1-1.8c0-1.7-1.5-2-2.7-2c-1.7,0-2.9,0.5-3,2.3h-2c0.1-3,2.4-4.1,5.1-4.1
			c2.2,0,4.6,0.5,4.6,3.3v6.3c0,1,0,1.4,0.7,1.4c0.2,0,0.3,0,0.7-0.1V92.6z M311.5,86.4c-0.8,0.6-2.3,0.6-3.6,0.8
			c-1.3,0.2-2.4,0.7-2.4,2.2c0,1.3,1.1,1.8,2.4,1.8c2.6,0,3.8-1.6,3.8-2.8L311.5,86.4C311.6,86.4,311.5,86.4,311.5,86.4z"/>
		<path class="st0" d="M327.5,92.6h-2V91h-0.1c-0.7,1.3-2.2,2-3.9,2c-3.8,0-5.6-2.9-5.6-6.4c0-3.4,1.9-6.4,5.5-6.4
			c1.2,0,3,0.5,3.9,1.9h0.1v-6.3h2L327.5,92.6C327.4,92.6,327.5,92.6,327.5,92.6z M321.8,91.2c2.7,0,3.8-2.3,3.8-4.6
			c0-2.4-1.1-4.6-3.8-4.6c-2.8,0-3.7,2.4-3.7,4.7C318.1,88.9,319.2,91.2,321.8,91.2z"/>
	</g>
	<g>
		<g>
			<path class="st0" d="M34.8,107.8c-9.8,0-18.6-5-24.8-12.7l0,0C3.8,87.3,0,76.7,0,64.9l0,0c0-11.7,3.8-22.3,10-30.2l0,0
				c6.3-7.7,15.1-12.6,24.8-12.6l0,0c9.8,0,18.6,5,24.8,12.7l0,0c6.3,7.7,10,18.4,10,30.2l0,0c0,11.7-3.8,22.3-10,30.2l0,0
				C53.4,102.9,44.6,107.8,34.8,107.8L34.8,107.8L34.8,107.8L34.8,107.8z M4.1,64.9c0,10.8,3.5,20.6,9.1,27.6l0,0
				c5.6,7,13.3,11.2,21.6,11.2l0,0c8.3,0,16-4.2,21.6-11.2l0,0c5.6-7,9.1-16.8,9.1-27.6l0,0c0-10.8-3.5-20.6-9.1-27.6l0,0
				c-5.6-7-13.2-11.2-21.6-11.2l0,0c-8.3,0-16,4.2-21.6,11.2l0,0C7.6,44.4,4.1,54.1,4.1,64.9L4.1,64.9L4.1,64.9z"/>
		</g>
	</g>
	<g>
		<path class="st0" d="M7.2,65.6c0,1.4,0.1,2.8,0.2,4.1h54.8c0.2-1.3,0.2-2.7,0.2-4.1C62.5,65.6,7.2,65.6,7.2,65.6z M52,37.6
			c-1.3-1.3-2.6-2.4-4.1-3.4v28H52V37.6z M12.1,84.9h45.4c0.7-1.3,1.4-2.7,2-4.1H10.2C10.8,82.2,11.4,83.6,12.1,84.9z M44.4,32.1
			c-1.3-0.7-2.7-1.1-4.1-1.5v31.5h4.1V32.1z M9,77.2h51.8c0.4-1.3,0.7-2.7,1-4.1H8C8.2,74.5,8.6,75.9,9,77.2z M34.8,99.9
			c4.6,0,8.9-1.4,12.7-3.9H22.1C25.9,98.5,30.3,99.9,34.8,99.9z M36.9,30.1c-0.7-0.1-1.3-0.1-2-0.1c-0.7,0-1.4,0.1-2.1,0.1v32h4.1
			V30.1z M15.4,89.9c0.7,0.9,1.5,1.8,2.4,2.6h34.1c0.8-0.8,1.6-1.6,2.4-2.6c0.4-0.5,0.7-1,1.1-1.5h-41
			C14.7,88.9,15.1,89.4,15.4,89.9z M29.2,30.7c-1.4,0.4-2.8,0.9-4.1,1.5v29.9h4.1V30.7z M21.6,34.2c-1.5,1-2.8,2.1-4.1,3.4v24.5h4.1
			V34.2z"/>
	</g>
</g>
</svg>
