<?xml version="1.0" encoding="utf-8"?>
<!-- Generator: Adobe Illustrator 21.0.0, SVG Export Plug-In . SVG Version: 6.00 Build 0)  -->
<svg version="1.1" id="Capa_1" xmlns="http://www.w3.org/2000/svg" xmlns:xlink="http://www.w3.org/1999/xlink" x="0px" y="0px"
	 viewBox="0 0 265.1 124" style="enable-background:new 0 0 265.1 124;" xml:space="preserve">
<style type="text/css">
	.st0{fill:#FFFFFF;}
</style>
<g>
	<path class="st0" d="M33.5,78l-0.2,0.2C30.2,81.4,26.6,83,23,83c-7.7,0-13.2-5.7-13.2-13.7S15.3,55.6,23,55.6
		c3.7,0,7.2,1.7,10.3,4.8l0.2,0.2l4.9-5.9l-0.1-0.1c-4.1-5-9-7.3-15-7.3s-11.6,2.1-15.6,5.7C3.3,57,1,62.7,1,69.3s2.3,12.3,6.6,16.3
		c4,3.7,9.5,5.7,15.6,5.7s11-2.4,15.1-7.2l0.1-0.1L33.5,78L33.5,78z"/>
	<polygon class="st0" points="43.4,90.5 52.1,90.5 52.1,48 43.4,48 	"/>
	<path class="st0" d="M86.2,81.2c-2.3,1.4-4.5,2.1-6.4,2.1c-2.8,0-4.1-1.5-4.1-4.8V56h8.9v-8h-8.9V34.8l-8.5,4.6V48h-7.3v8h7.3v24
		c0,6.5,3.9,11,9.7,11.1c3.9,0.1,6.3-1.1,7.7-1.9l0.1-0.1l2.1-8.2L86.2,81.2L86.2,81.2z"/>
	<polygon class="st0" points="93.4,90.5 102.1,90.5 102.1,48 93.4,48 	"/>
	<path class="st0" d="M107.2,40.6c-7.9-11.3-21.1-18-34.6-18c-13.4,0-26.6,6.7-34.5,18l-0.4,0.6h10l0.1-0.1
		c6.8-7,15.7-10.8,24.9-10.8S90.7,34,97.5,41l0.1,0.1h10L107.2,40.6L107.2,40.6z"/>
	<path class="st0" d="M118.7,58.1l-0.1,0.1v22l0.1,0.1c2.8,4.3,7.2,6.8,12,6.8c7.3,0,11.1-6.2,11.1-18.4c0-10.9-4.1-17.1-11.3-17.1
		C126,51.7,122.1,53.8,118.7,58.1L118.7,58.1z M265.1,90.3v0.1c-1.3,0-4.7,0-5.3,0c-0.3-0.6-11-23.3-11-23.3l-8,11.2
		c0,0,0,11.1,0,12c-0.8,0-4.1,0-5,0c0-1.1,0-55.1,0-55.8c0.5-0.3,3.8-2.2,5-2.8c0,1.8,0,40.5,0,40.5l2.7-4.2
		c0,0,12.2-17.6,13.7-19.8c0.5,0,4,0,5.4,0c-1.2,1.5-10.8,14.8-10.8,14.8S263.9,87.8,265.1,90.3L265.1,90.3z M166.2,91.4H164
		c-4.3-0.3-12-2.3-12-13.3c0-9.8,8.1-13.3,15.7-13.3c3.8,0,7.6,0.9,10.3,2.4l0.8,0.5v-6.1c0-6.7-3.3-10.1-9.8-10.1
		c-4,0-7.6,1-11.3,3.1c-0.3-0.8-1.5-3.3-1.8-4c3.9-2.1,8.6-3.2,13.5-3.2c9.7,0,14.3,4.4,14.3,13.5c0,0,0,28.6,0,29.6
		c-0.8,0-4.1,0-5,0c0-0.9,0-6.2,0-6.2l-1,1.1C174.5,89.1,170.7,91.1,166.2,91.4L166.2,91.4z M132,91.4h-1.9
		c-4.1-0.3-7.5-2.1-10.5-5.5l-1-1.2c0,0,0,5,0,5.8c-0.8,0-4.1,0-5,0c0-1.1,0-55.1,0-55.8c0.4-0.3,3.8-2.2,5-2.8c0,1.7,0,22.5,0,22.5
		l1-1c3.7-4.1,7.7-6,12.4-6c9.3,0,14.7,7.7,14.7,21.3C146.6,82,140.9,90.8,132,91.4L132,91.4z M156.9,77.7c0,6.3,3.3,9.8,9.2,9.8
		c5.1,0,9.5-2.4,12.7-6.7l0.1-0.1v-9.3l-0.3-0.1c-3.2-1.8-6.4-2.5-11.2-2.5C160.9,68.7,156.9,72,156.9,77.7L156.9,77.7z M200.1,53.3
		c2.6-3.8,6.6-5.9,11.3-5.9c9.3,0,14.3,6,14.3,17.3c0,0,0,24.8,0,25.8c-0.8,0-4.1,0-5,0c0-1,0-24.7,0-24.7c0-9.6-3.3-14.1-10.6-14.1
		c-6.9,0-11.1,5.3-11.1,14.1c0,0,0,23.7,0,24.7c-0.8,0-4.1,0-5,0c0-1,0-41.2,0-42.2c0.8,0,4.1,0,5,0c0,0.9,0,6.6,0,6.6L200.1,53.3
		L200.1,53.3z"/>
</g>
</svg>
