<?xml version="1.0" encoding="utf-8"?>
<!-- Generator: Adobe Illustrator 21.0.0, SVG Export Plug-In . SVG Version: 6.00 Build 0)  -->
<svg version="1.1" id="Capa_1" xmlns="http://www.w3.org/2000/svg" xmlns:xlink="http://www.w3.org/1999/xlink" x="0px" y="0px"
	 viewBox="0 0 313 124" style="enable-background:new 0 0 313 124;" xml:space="preserve">
<style type="text/css">
	.st0{fill:#FFFFFF;}
</style>
<g>
	<g>
		<path class="st0" d="M57.8,21.3c-31.6,0-57.2,16.8-57.2,37.4c0,0.5,0,2,0,2.2c0,21.8,22.4,39.5,57.2,39.5
			c35,0,57.2-17.7,57.2-39.5c0-0.7,0-1.2,0-2.2C115,38.1,89.4,21.3,57.8,21.3z M57.9,93.9c-30.4,0-55-15.7-55-35.2
			s24.6-35.2,55-35.2c30.4,0,55,15.7,55,35.2S88.2,93.9,57.9,93.9z"/>
		<path class="st0" d="M88.4,62.4c-5.4-4.7-18-15.7-21.3-18.2c-2-1.5-3.3-2.2-4.4-2.6c-0.5-0.2-1.2-0.3-2.1-0.3
			c-0.8,0-1.8,0.2-2.7,0.5c-2.2,0.7-4.4,2.5-6.5,4.1L51.2,46c-2,1.6-4,3.2-5.5,3.5c-0.7,0.2-1.4,0.2-2.1,0.2c-1.7,0-3.3-0.5-3.9-1.2
			c-0.1-0.1,0-0.3,0.2-0.6l0,0l4.8-5.1c3.7-3.7,7.2-7.2,15.4-7.4c0.2,0,0.2,0,0.4,0c5,0,10.1,2.3,10.7,2.6c4.8,2.3,9.6,3.5,14.6,3.5
			c5.1,0,10.5-1.2,16-3.8c-0.7-0.5-1.2-1.1-1.9-1.6c-4.9,2.1-9.6,3.2-14,3.2c-4.6,0-9.1-1.1-13.6-3.3c-0.2-0.1-5.8-2.7-11.6-2.7
			c-0.2,0-0.3,0-0.5,0c-7-0.2-10.9,2.3-13.4,4.4c-2.6,0.1-4.7,0.7-6.6,1.2c-1.7,0.5-3.2,0.9-4.7,0.9c-0.6,0-1.6-0.1-1.7-0.1
			c-1.6-0.1-10.1-2.1-16.7-4.6c-0.7,0.5-1.3,1-2,1.5c7,2.9,15.5,5.1,18.2,5.3c0.7,0.1,1.6,0.2,2.3,0.2c1.8,0,3.5-0.5,5.3-1
			c1-0.2,2.1-0.6,3.3-0.8c-0.3,0.3-0.7,0.7-0.9,0.9l-4.9,5.3c-0.4,0.4-1.2,1.4-0.7,2.7c0.2,0.5,0.7,1,1.2,1.4
			c1.2,0.7,3.2,1.3,5.1,1.3c0.7,0,1.4-0.1,2.1-0.2c2.1-0.5,4.2-2.1,6.4-4c1.8-1.4,4.4-3.2,6.3-3.8c0.6-0.2,1.2-0.2,1.7-0.2
			c0.2,0,0.3,0,0.5,0c1.3,0.2,2.6,0.6,4.8,2.3c4,3,21.6,18.4,21.7,18.5c0,0,1.2,1,1.1,2.6c-0.1,0.9-0.6,1.7-1.4,2.2
			c-0.7,0.5-1.6,0.7-2.3,0.7c-1.2,0-2-0.6-2.1-0.6c-0.1-0.1-6.1-5.6-8.3-7.4c-0.3-0.3-0.7-0.6-1.1-0.6c-0.2,0-0.3,0.1-0.5,0.2
			c-0.3,0.4,0.1,1,0.5,1.4l7.1,7.1c0,0,0.9,0.8,1,1.9c0.1,1.2-0.5,2.1-1.6,2.9c-0.8,0.6-1.6,0.8-2.5,0.8c-1.1,0-1.8-0.5-2-0.6l-1-1
			c-1.8-1.8-3.8-3.7-5.2-4.9c-0.3-0.2-0.7-0.6-1.1-0.6c-0.2,0-0.3,0.1-0.4,0.2c-0.2,0.2-0.2,0.5,0.2,1c0.2,0.2,0.3,0.4,0.3,0.4
			l5.1,5.8c0.1,0.1,1.1,1.2,0.1,2.5l-0.2,0.2c-0.2,0.2-0.3,0.3-0.5,0.5c-0.9,0.7-2.1,0.8-2.6,0.8c-0.2,0-0.5,0-0.7-0.1
			c-0.5-0.1-0.8-0.2-1-0.4l-0.1-0.1c-0.2-0.3-2.9-3-5-4.7c-0.2-0.2-0.7-0.6-1-0.6c-0.2,0-0.3,0.1-0.5,0.2c-0.4,0.5,0.2,1.2,0.5,1.4
			l4.4,4.9c0,0.1-0.1,0.2-0.2,0.3c-0.2,0.2-0.7,0.7-2.3,1c-0.2,0-0.4,0-0.6,0c-1.6,0-3.4-0.8-4.3-1.2c0.4-0.9,0.7-1.8,0.7-2.8
			c0-3.6-3-6.5-6.5-6.6c-0.1,0-0.2,0-0.2,0c0.1-1.6-0.1-4.8-3.3-6.2c-0.9-0.4-1.8-0.6-2.7-0.6c-0.7,0-1.4,0.1-2,0.3
			c-0.7-1.3-1.7-2.2-3.2-2.7c-0.8-0.2-1.6-0.4-2.4-0.4c-1.3,0-2.6,0.4-3.6,1.2c-1.1-1.3-2.6-2.1-4.3-2.1c-1.5,0-2.9,0.6-3.9,1.6
			c-1.4-1.1-6.8-4.4-21.3-7.7c-0.7-0.2-2.3-0.7-3.3-0.9c-0.2,0.8-0.3,1.6-0.4,2.4c0,0,2.6,0.7,3.2,0.7c14.8,3.3,19.7,6.7,20.5,7.3
			c-0.2,0.7-0.4,1.4-0.4,2.1c0,3,2.5,5.5,5.5,5.5c0.3,0,0.7,0,1-0.1c0.5,2.2,1.9,4,4.2,4.9c0.7,0.2,1.3,0.4,2,0.4
			c0.4,0,0.8-0.1,1.2-0.2c0.4,1.1,1.3,2.4,3.5,3.2c0.7,0.3,1.5,0.4,2.1,0.4c0.6,0,1.2-0.1,1.7-0.3c1,2.5,3.4,4,6,4
			c1.7,0,3.5-0.7,4.7-2c1.1,0.6,3.3,1.6,5.5,1.6c0.3,0,0.6,0,0.8-0.1c2.2-0.2,3.3-1.2,3.8-1.8c0.1-0.1,0.2-0.2,0.2-0.4
			c0.5,0.2,1.1,0.2,1.8,0.2c1.2,0,2.4-0.4,3.5-1.3c1.2-0.8,2-2.1,2.1-3c0,0,0,0,0-0.1c0.4,0.1,0.8,0.1,1.2,0.1
			c1.2,0,2.5-0.4,3.7-1.2c2.3-1.5,2.7-3.5,2.6-4.7c0.4,0.1,0.8,0.2,1.2,0.2c1.2,0,2.3-0.3,3.5-1.1c1.4-0.9,2.3-2.3,2.4-3.9
			c0.1-1.1-0.2-2.2-0.7-3.1c3.8-1.6,12.5-4.9,22.8-7.2c-0.1-0.8-0.2-1.6-0.3-2.4C100,57.3,90.7,61.3,88.4,62.4z M53.6,82.5
			c-2.4,0-4.4-1.9-4.4-4.3c0-0.2,0-0.7-0.5-0.7c-0.2,0-0.3,0.1-0.6,0.2c-0.5,0.5-1.2,1-2.2,1c-0.4,0-0.9-0.1-1.5-0.3
			c-2.6-1.1-2.6-2.8-2.5-3.5c0-0.2,0-0.4-0.1-0.6l-0.2-0.2h-0.2c-0.2,0-0.2,0.1-0.4,0.2c-0.7,0.5-1.5,0.7-2.1,0.7
			c-0.4,0-0.8-0.1-1.2-0.2c-3.4-1.3-3.1-4.4-3-5.4c0-0.2,0-0.3-0.2-0.4l-0.2-0.2l-0.1,0.2c-0.7,0.7-1.5,1-2.4,1
			c-1.9,0-3.5-1.6-3.5-3.5s1.6-3.5,3.5-3.5c1.7,0,3.2,1.3,3.5,3l0.1,0.9l0.5-0.8c0.1-0.1,1.5-2.2,4-2.2c0.5,0,1,0.1,1.5,0.2
			c2.1,0.7,2.4,2.5,2.5,3.3c0,0.5,0.3,0.5,0.4,0.5c0.2,0,0.3-0.1,0.4-0.2c0.4-0.4,1.2-1.1,2.6-1.1c0.6,0,1.2,0.2,1.9,0.4
			c3.3,1.4,1.8,5.6,1.8,5.6c-0.2,0.7-0.3,1,0,1.2l0.2,0.1h0.1c0.2,0,0.3-0.1,0.7-0.2c0.4-0.2,1.2-0.4,1.7-0.4l0,0
			c2.5,0,4.4,2.1,4.4,4.4C58.1,80.4,56,82.5,53.6,82.5z"/>
	</g>
	<g>
		<path class="st0" d="M309.9,34.9c-2.1-2.6-5.2-3.9-9.4-3.9c-4.2,0-7.3,1.3-9.4,3.9c-2.1,2.6-3.1,5.6-3.1,9.1
			c0,3.6,1.1,6.7,3.1,9.2c2.1,2.6,5.2,3.8,9.4,3.8c4.2,0,7.3-1.2,9.4-3.8s3.1-5.6,3.1-9.2C313,40.5,311.9,37.4,309.9,34.9z
			 M304.8,49.7c-1,1.3-2.5,2-4.3,2c-1.9,0-3.3-0.7-4.3-2c-1-1.3-1.5-3.2-1.5-5.7s0.5-4.4,1.5-5.7s2.5-2,4.3-2c1.9,0,3.3,0.7,4.3,2
			c1,1.3,1.5,3.2,1.5,5.7C306.2,46.5,305.8,48.4,304.8,49.7z"/>
		<path class="st0" d="M257.1,32.7c-2.1-1.1-4.4-1.6-7.2-1.6c-4.1,0-7.1,1.1-8.7,3.2c-1.1,1.4-1.6,3.1-1.8,5.3h6.2
			c0.2-0.9,0.5-1.7,0.9-2.2c0.7-0.7,1.7-1.2,3.3-1.2c1.4,0,2.4,0.2,3.1,0.6c0.7,0.4,1.1,1.1,1.1,2.1c0,0.8-0.5,1.4-1.4,1.8
			c-0.5,0.2-1.4,0.4-2.6,0.6l-2.2,0.2c-2.5,0.3-4.4,0.8-5.7,1.6c-2.3,1.3-3.5,3.5-3.5,6.5c0,2.3,0.7,4.1,2.2,5.4
			c1.5,1.2,3.3,1.8,5.5,1.9c14,0.7,13.8-7.4,14-9.1v-9.1C260.3,35.8,259.2,33.8,257.1,32.7z M253.8,46.7c-0.1,2.1-0.7,3.6-1.8,4.4
			c-1.2,0.8-2.5,1.2-3.9,1.2c-0.9,0-1.6-0.2-2.2-0.7c-0.6-0.5-0.9-1.3-0.9-2.4c0-1.2,0.5-2.1,1.5-2.7c0.6-0.3,1.6-0.7,3-0.9l1.5-0.2
			c0.7-0.2,1.3-0.2,1.7-0.4c0.4-0.2,0.8-0.3,1.2-0.6L253.8,46.7L253.8,46.7z"/>
		<path class="st0" d="M225.2,36.6c1.6,0,2.8,0.5,3.5,1.5c0.5,0.7,0.8,1.6,1,2.5h6.9c-0.4-3.5-1.6-5.9-3.6-7.3s-4.7-2.1-7.9-2.1
			c-3.8,0-6.8,1.2-9,3.5c-2.1,2.3-3.2,5.6-3.2,9.8c0,3.7,1,6.8,3,9.1c2,2.3,5,3.5,9.1,3.5s7.2-1.4,9.4-4.2c1.3-1.7,2.1-3.5,2.2-5.5
			h-6.9c-0.2,1.3-0.6,2.3-1.2,3.1c-0.7,0.8-1.8,1.2-3.4,1.2c-2.2,0-3.7-1-4.5-3c-0.4-1.1-0.7-2.6-0.7-4.3c0-1.9,0.2-3.4,0.7-4.5
			C221.4,37.7,223,36.6,225.2,36.6z"/>
		<path class="st0" d="M210.9,31.2c-14.2,0-13.3,12.5-13.3,12.5v12.8h6.4V44.5c0-2,0.2-3.4,0.7-4.4c0.9-1.6,2.6-2.6,5.2-2.6
			c0.2,0,0.4,0,0.7,0s0.7,0.1,1.1,0.1v-6.6c-0.2,0-0.5,0-0.6,0C211.2,31.2,211.1,31.2,210.9,31.2z"/>
		<path class="st0" d="M187.3,49.9c-0.2,0.4-0.6,0.7-0.9,1c-0.9,0.7-2.1,1-3.6,1c-1.4,0-2.5-0.2-3.5-0.8c-1.6-1-2.5-2.6-2.6-5.1
			h17.8c0-2.1-0.1-3.7-0.2-4.9c-0.3-1.9-0.9-3.6-2-5c-1.1-1.6-2.6-2.9-4.2-3.6c-1.7-0.7-3.6-1.2-5.8-1.2c-3.6,0-6.5,1.2-8.7,3.4
			c-2.2,2.2-3.4,5.5-3.4,9.7c0,4.5,1.2,7.8,3.7,9.8c2.5,2,5.4,3,8.7,3c4,0,7-1.2,9.2-3.5c1.2-1.2,1.9-2.5,2.2-3.7L187.3,49.9
			L187.3,49.9z M178.6,37.9c0.9-0.9,2.1-1.4,3.8-1.4c1.5,0,2.8,0.4,3.8,1.3c1,0.9,1.6,2.1,1.7,3.9h-11
			C177.1,40.1,177.7,38.8,178.6,37.9z"/>
		<g>
			<path class="st0" d="M167.8,56.6h-5.8V41.7c0-1.3-0.4-4.5-4.4-4.5c-2.6,0-4.4,1.9-4.4,4.5v14.8h-5.8V41.7c0-1.3-0.4-4.5-4.3-4.5
				c-2.6,0-4.4,1.9-4.4,4.5v14.8h-5.8V41.8c0-6.1,4-10.7,10.4-10.7c3.1,0,5.7,1.3,7.3,3.4c1.7-2.1,4.3-3.4,7.3-3.4
				c6.4,0,10.2,4.4,10.2,10.7v14.7H167.8z"/>
		</g>
		<path class="st0" d="M286.1,23.4c0,0-6.5-0.7-6.5,4.5v6.9c-0.7-1.2-1.6-2.1-2.8-2.7c-1.2-0.7-2.5-1-4-1c-3.2,0-5.8,1.2-7.7,3.6
			c-1.9,2.4-2.9,5.8-2.9,10.1c0,3.6,1,6.6,3,8.9c2,2.3,5.8,3.3,9.1,3.3c11.9,0,11.7-10.1,11.7-10.1L286.1,23.4z M278.3,49.8
			c-0.9,1.3-2.3,2.1-4.1,2.1s-3.1-0.7-4-2.1c-0.9-1.3-1.3-3.3-1.3-5.6c0-2.1,0.4-3.9,1.3-5.3s2.2-2.1,4.1-2.1c1.2,0,2.3,0.4,3.2,1.2
			c1.5,1.3,2.3,3.6,2.3,6.6C279.7,46.7,279.3,48.4,278.3,49.8z"/>
	</g>
	<g>
		<g>
			<path class="st0" d="M179.6,97.4c0,0.9-0.3,1.6-1,2.2c-0.7,0.7-1.4,0.9-2.3,0.9h-3.2V78.2c0-4.4,1.5-7.1,3.9-8.9
				c1.6-1.2,4-2.4,8.4-2.4c3,0,6.5,1.2,8.4,3.5c2.1,2.6,3,5.5,3,9.3c0,4-0.9,7.1-2.8,9.6c-1.9,2.4-4.3,3.5-7.2,3.5
				c-1.6,0-3-0.2-4.2-0.8c-1.2-0.7-2.3-1.6-3-2.9L179.6,97.4L179.6,97.4z M190.4,80c0-2.4-0.5-4.3-1.4-5.6c-0.9-1.3-2.3-2-4-2
				c-1.7,0-3,0.7-4,2c-0.9,1.2-1.3,3-1.3,5.6c0,2.4,0.5,4.1,1.4,5.4c0.9,1.3,2.3,2,4,2c1.6,0,3-0.7,3.9-2S190.4,82.2,190.4,80"/>
			<path class="st0" d="M239.6,90.7v-1.6c-1.2,1.7-2.6,2.8-4.5,3.3c-1.9,0.4-3.8,0.2-5.6-0.5c-1.9-0.7-3.5-2.1-4.8-4.1
				c-1.3-2.1-2-4.7-2-8c0-3.9,0.9-7,2.6-9.4c1.7-2.4,4.6-3.5,8.5-3.6c3.9-0.1,6.1,0.7,8.2,2.4c2.4,1.8,3.8,4.6,3.8,9v13.2
				c0,4.2-2.9,11.9-12.1,11.3c-5.7-0.4-8.8-2.7-10.6-8h6.8c0.5,0.9,1.2,1.6,2.3,2c1,0.5,2.1,0.6,3,0.4c1-0.2,2-0.8,2.8-1.8
				C238.9,94.2,239.4,92.7,239.6,90.7 M229,80c0,4.3,1.2,6.7,3.7,7.2c2.5,0.5,4.3-0.1,5.5-1.7c0.6-0.7,1-1.7,1.2-3.2
				c0.2-1.5,0.2-2.9,0.1-4.4c-0.2-1.4-0.7-2.7-1.6-3.8c-0.8-1.2-2-1.6-3.5-1.6c-2.1,0-3.5,0.7-4.3,2.3C229.4,76.2,229,78,229,80"/>
			<path class="st0" d="M217.2,68.6c-2.1-1.1-4.5-1.6-7.2-1.6c-4.1,0-7.1,1.1-8.7,3.2c-1.1,1.4-1.6,3.1-1.8,5.3h6.2
				c0.2-1,0.5-1.7,0.9-2.2c0.7-0.7,1.7-1.2,3.3-1.2c1.4,0,2.4,0.2,3.1,0.6c0.7,0.4,1.1,1.1,1.1,2.1c0,0.8-0.5,1.4-1.4,1.8
				c-0.5,0.2-1.4,0.4-2.6,0.6l-2.2,0.2c-2.5,0.3-4.4,0.8-5.7,1.6c-2.3,1.3-3.5,3.5-3.5,6.5c0,2.3,0.7,4.1,2.2,5.4
				c1.5,1.2,3.3,1.8,5.5,1.9c14,0.7,13.8-7.4,14-9.1v-9.1C220.3,71.6,219.2,69.7,217.2,68.6 M213.9,82.6c0,2.1-0.7,3.6-1.8,4.4
				c-1.2,0.8-2.5,1.2-3.9,1.2c-0.9,0-1.6-0.2-2.2-0.7c-0.7-0.5-0.9-1.3-0.9-2.4c0-1.2,0.5-2.1,1.5-2.7c0.6-0.3,1.6-0.7,3-0.9
				l1.5-0.2c0.7-0.2,1.3-0.2,1.7-0.4c0.4-0.2,0.8-0.3,1.2-0.6L213.9,82.6L213.9,82.6z"/>
			<path class="st0" d="M270.2,70.6c-2.1-2.6-5.2-3.9-9.4-3.9c-4.2,0-7.3,1.3-9.4,3.9c-2.1,2.6-3.1,5.6-3.1,9.1
				c0,3.6,1.1,6.7,3.1,9.2c2.1,2.6,5.2,3.8,9.4,3.8c4.2,0,7.3-1.2,9.4-3.8s3.1-5.6,3.1-9.2C273.4,76.2,272.3,73.2,270.2,70.6
				 M265.1,85.5c-1,1.3-2.5,2-4.3,2c-1.8,0-3.3-0.7-4.3-2c-1-1.3-1.5-3.2-1.5-5.7s0.5-4.4,1.5-5.7c1-1.3,2.5-2,4.3-2
				c1.8,0,3.3,0.7,4.3,2c1,1.3,1.5,3.2,1.5,5.7C266.6,82.3,266.1,84.2,265.1,85.5"/>
		</g>
	</g>
</g>
</svg>
