<?xml version="1.0" encoding="utf-8"?>
<!-- Generator: Adobe Illustrator 21.0.0, SVG Export Plug-In . SVG Version: 6.00 Build 0)  -->
<svg version="1.1" id="Capa_1" xmlns="http://www.w3.org/2000/svg" xmlns:xlink="http://www.w3.org/1999/xlink" x="0px" y="0px"
	 viewBox="0 0 421 124" style="enable-background:new 0 0 421 124;" xml:space="preserve">
<style type="text/css">
	.st0{fill:#FFFFFF;}
</style>
<g>
	<path class="st0" d="M5,50.3h26.1v5.3h-5.7v25.8h18.1V71.1h5.1v15.3H5.3l0.1-4.7h6.4V55.8H5.2L5,50.3L5,50.3z M80.5,70.2l-5.9-13.3
		l-5.9,13.3H80.5L80.5,70.2z M208.9,70.2L203,56.9l-5.9,13.3L208.9,70.2L208.9,70.2z M130.6,50.1h18.7l22,29.5v-24h-6.1v-5.4h17.2
		v5.5h-5.3v30.5h-17l-18-24.5v19.6h5.5v5.1H131v-5h5.6V55.9h-6V50.1L130.6,50.1z M364.2,50.6h18.7l22,29.5v-24h-6.1v-5.4H416v5.5
		h-5.3v30.5h-17l-18-24.5v19.6h5.5v5.1h-16.7v-5h5.6V56.4h-6v-5.8C364.1,50.6,364.2,50.6,364.2,50.6z M275.4,51.1v12.6h-5.3
		c0,0-2-9.4-10.4-9c-8.4,0.3-12.1,7-11.9,13.5c0.2,6.5,3.7,13.7,12.1,13.7c8.4,0,11.7-6.2,11.7-6.2l4.6,3.6c0,0-5.2,8.7-19.5,8.7
		c-14.3,0-24.5-8.1-24.5-19.7s11.2-19.1,22.1-19.1c10.9,0,14.4,3.4,14.4,3.4S269.2,50.2,275.4,51.1L275.4,51.1z M280.9,50.3h26.3
		v5.4h-6.1v25.6h6.1v5H281v-5.1h6.1V55.6h-6.2V50.3L280.9,50.3z M325.6,68.3c0,15.3,10.4,14.3,10.4,14.3s10.4,0.5,10.4-14.2
		s-10.1-13.3-10.1-13.3S325.6,53,325.6,68.3L325.6,68.3z M186.7,81.3L200.5,50h13.3l13.4,31.1h6.5v5.2h-26.5v-5h6.1L211,75h-15.9
		l-2.9,6.4h5.6v4.9H181v-5H186.7L186.7,81.3z M336.3,49.2c0,0,25.3,0,25.3,19.9s-26,18.7-26,18.7s-25.4,2-25.4-19.5
		C310.3,48.4,336.3,49.2,336.3,49.2L336.3,49.2z M58.3,81.3L72.1,50h13.3l13.4,31.1h6.5v5.2H78.9v-5H85L82.6,75H66.7l-2.9,6.4h5.6
		v4.9H52.6v-5H58.3L58.3,81.3z"/>
</g>
</svg>
