<?xml version="1.0" encoding="utf-8"?>
<!-- Generator: Adobe Illustrator 21.0.0, SVG Export Plug-In . SVG Version: 6.00 Build 0)  -->
<svg version="1.1" id="Capa_1" xmlns="http://www.w3.org/2000/svg" xmlns:xlink="http://www.w3.org/1999/xlink" x="0px" y="0px"
	 viewBox="0 0 256.4 124" style="enable-background:new 0 0 256.4 124;" xml:space="preserve">
<style type="text/css">
	.st0{fill:#FFFFFF;}
</style>
<g>
	<path class="st0" d="M87.7,59.2c0-6.5,0-12.8,0-19.3c4.4,0,8.5,0,12.7,0c0,17.2,0,34.2,0,51.5c-4.1,0-8.1,0-12.7,0
		c0-6.8,0-13.6,0-20.6c-5.5,0-10.6,0-16.2,0c0,6.8,0,13.5,0,20.6c-4.4,0-8.3,0-12.5,0c0-17.1,0-34.2,0-51.6c3.9,0,7.8,0,12.2,0
		c0,6.4,0,12.8,0,19.3C77,59.2,82,59.2,87.7,59.2z"/>
	<path class="st0" d="M245.3,39.8c3.7,0,7.3,0,11.1,0c0,12,0,23.7,0,35.8c-3.7,0-7.2,0-11.1,0C245.3,63.8,245.3,52.1,245.3,39.8z"/>
	<path class="st0" d="M245.2,91.5c0-3.6,0-6.9,0-10.6c3.7,0,7.3,0,11.2,0c0,3.5,0,6.9,0,10.6C252.7,91.5,249.2,91.5,245.2,91.5z"/>
	<path class="st0" d="M228.5,34.7c1.1-1.6,1.9-2.7,2.6-3.7c3,0,5.7,0,8.7,0c0,1.3,0,2.4,0,3.7C236.2,34.7,232.7,34.7,228.5,34.7z"/>
	<path class="st0" d="M225.3,39.3c-9.4,13.8-18.8,27.7-28,41.1c-3.4,0-6.1,0-9.2,0c0-13.8,0-27.3,0-40.9c-4.5,0-8.5,0-12.6,0
		c0,17.5,0,34.7,0,52.1c9.8,0,19.3,0,28.9,0c1.8-2.5,3.5-4.9,5.1-7.2c6,0,11.7,0,17.7,0c0.3,2.5,0.5,4.8,0.7,7.1c4.2,0,8,0,12,0
		c0-17.5,0-34.8,0-52.2C234.9,39.3,230.2,39.3,225.3,39.3z M227.2,74.1c-3.5,0-6.5,0-10.6,0c3.5-5.3,6.7-9.9,10.6-15.9
		C227.2,64.4,227.2,69,227.2,74.1z"/>
	<path class="st0" d="M155.5,39.3c-9.5,13.9-18.8,27.7-28,41.1c-3.3,0-6,0-9.2,0c0-13.8,0-27.4,0-41.1c-4.5,0-8.4,0-12.6,0
		c0,17.5,0,34.8,0,52.2c9.9,0,19.4,0,29,0c1.8-2.5,3.5-4.9,5.1-7.2c5.9,0,11.6,0,17.6,0c0.2,2.5,0.5,4.8,0.7,7.2c4.1,0,8,0,12,0
		c0-17.5,0-34.8,0-52.2C165.2,39.3,160.5,39.3,155.5,39.3z M157.5,74c-3.5,0-6.6,0-10.7,0c3.6-5.2,6.7-9.9,10.7-15.7
		C157.5,64.5,157.5,69.2,157.5,74z"/>
	<path class="st0" d="M27.7,38.4C11.9,38.5,0,50.4,0,66.1c0,15,12.6,27,28.3,26.9C43.9,92.9,56.1,80.8,56,65.5
		C55.9,49.9,43.8,38.4,27.7,38.4z M28.1,81.6c-8.4-0.2-14.9-7.1-15-16c-0.1-8.8,6.9-16.2,15.2-16.1c8.3,0.1,14.6,7.1,14.6,16.2
		C42.9,74.8,36.3,81.8,28.1,81.6z"/>
</g>
</svg>
