<?xml version="1.0" encoding="utf-8"?>
<!-- Generator: Adobe Illustrator 21.0.0, SVG Export Plug-In . SVG Version: 6.00 Build 0)  -->
<svg version="1.1" id="Layer_1" xmlns="http://www.w3.org/2000/svg" xmlns:xlink="http://www.w3.org/1999/xlink" x="0px" y="0px"
	 viewBox="0 0 188 39" style="enable-background:new 0 0 188 39;" xml:space="preserve">
<style type="text/css">
	.st0{fill:#01EDC0;}
</style>
<g>
	<path class="st0" d="M19.4,0c10.8,0,19.5,8.7,19.5,19.5c0,10.8-8.7,19.4-19.5,19.4C8.6,39,0,30.4,0,19.6C0,8.7,8.6,0,19.4,0z
		 M19.4,30.3c6,0,10.8-4.9,10.8-10.8c0-6-4.9-10.9-10.8-10.9c-5.9,0-10.8,4.9-10.8,10.9C8.7,25.5,13.5,30.3,19.4,30.3z"/>
	<path class="st0" d="M44.9,1.6c0-0.5,0.4-1,1-1h22.4c0.6,0,1,0.5,1,1v5.9c0,0.5-0.4,1-1,1h-15v7.8h12.3c0.5,0,1,0.5,1,1v5.9
		c0,0.5-0.5,1-1,1H53.4v13.2c0,0.5-0.5,1-1,1h-6.4c-0.6,0-1-0.5-1-1L44.9,1.6z"/>
	<path class="st0" d="M75.9,1.6c0-0.5,0.4-1,1-1h22.4c0.6,0,1,0.5,1,1v5.9c0,0.5-0.4,1-1,1h-15v6.7h12.3c0.5,0,1,0.5,1,1v5.9
		c0,0.6-0.5,1-1,1H84.4v7.3h15c0.6,0,1,0.5,1,1v5.9c0,0.5-0.4,1-1,1H77c-0.6,0-1-0.5-1-1L75.9,1.6L75.9,1.6z"/>
	<path class="st0" d="M108.7,1.6c0-0.5,0.4-1,1-1h6.4c0.5,0,1,0.5,1,1v28.9h12.9c0.6,0,1,0.5,1,1v5.9c0,0.5-0.4,1-1,1h-20.4
		c-0.6,0-1-0.5-1-1L108.7,1.6L108.7,1.6z"/>
	<path class="st0" d="M137.5,1.6c0-0.5,0.5-1,1-1h6.5c0.5,0,1,0.5,1,1v35.8c0,0.5-0.5,1-1,1h-6.5c-0.5,0-1-0.5-1-1V1.6z"/>
	<path class="st0" d="M151.5,37l16.9-36.4c0.2-0.3,0.5-0.6,0.9-0.6h0.5c0.4,0,0.8,0.3,0.9,0.6L187.8,37c0.3,0.7-0.1,1.4-0.9,1.4h-6
		c-1,0-1.4-0.3-1.9-1.4l-1.9-4.3h-14.7l-1.9,4.3c-0.3,0.6-0.9,1.3-1.9,1.3h-6C151.6,38.4,151.2,37.7,151.5,37z M173.8,25.5l-4.1-8.9
		h-0.1l-4.1,8.9H173.8z"/>
</g>
</svg>
